<mxfile host="Electron" modified="2024-04-13T02:53:51.467Z" agent="Mozilla/5.0 (Macintosh; Intel Mac OS X 10_15_7) AppleWebKit/537.36 (KHTML, like Gecko) draw.io/24.1.0 Chrome/120.0.6099.109 Electron/28.1.0 Safari/537.36" etag="SfV-WtQ79BcXs1tSAV7V" version="24.1.0" type="device">
  <diagram name="第 1 页" id="fXW2y-ZcA-rA3EtjZ7v2">
    <mxGraphModel dx="1834" dy="854" grid="1" gridSize="10" guides="1" tooltips="1" connect="1" arrows="1" fold="1" page="0" pageScale="1" pageWidth="827" pageHeight="1169" math="0" shadow="0">
      <root>
        <mxCell id="0" />
        <mxCell id="1" parent="0" />
        <mxCell id="gqwlFYw-vK7DlV-79t7J-1" value="&lt;div style=&quot;font-size: 13px;&quot;&gt;&lt;div style=&quot;font-size: 13px;&quot;&gt;AbstractAccessExecutionGraphHandler#handleRequest()&lt;br style=&quot;font-size: 13px;&quot;&gt;&lt;/div&gt;&lt;/div&gt;" style="rounded=0;whiteSpace=wrap;html=1;fontColor=default;labelBackgroundColor=none;fontFamily=Comic Sans MS;fontSize=13;" vertex="1" parent="1">
          <mxGeometry x="-70" y="430" width="380" height="30" as="geometry" />
        </mxCell>
        <mxCell id="gqwlFYw-vK7DlV-79t7J-2" value="&lt;div style=&quot;font-size: 13px;&quot;&gt;&lt;div style=&quot;font-size: 13px;&quot;&gt;AbstractExecutionGraphHandler#handleRequest()&lt;br style=&quot;font-size: 13px;&quot;&gt;&lt;/div&gt;&lt;/div&gt;" style="rounded=0;whiteSpace=wrap;html=1;labelBackgroundColor=none;fontFamily=Comic Sans MS;fontSize=13;fillColor=none;" vertex="1" parent="1">
          <mxGeometry x="-70" y="220" width="380" height="30" as="geometry" />
        </mxCell>
        <mxCell id="gqwlFYw-vK7DlV-79t7J-3" value="&amp;nbsp; 入口&amp;nbsp;" style="text;html=1;align=center;verticalAlign=middle;whiteSpace=wrap;rounded=0;fillColor=#dae8fc;strokeColor=#6c8ebf;fontFamily=Comic Sans MS;fontSize=13;" vertex="1" parent="1">
          <mxGeometry x="250" y="250" width="60" height="30" as="geometry" />
        </mxCell>
        <mxCell id="gqwlFYw-vK7DlV-79t7J-4" value="JobDetailsHandler#handleRequest()" style="rounded=0;whiteSpace=wrap;html=1;fontColor=default;labelBackgroundColor=none;fontFamily=Comic Sans MS;fontSize=13;" vertex="1" parent="1">
          <mxGeometry x="-70" y="560" width="380" height="30" as="geometry" />
        </mxCell>
        <mxCell id="gqwlFYw-vK7DlV-79t7J-5" value="Netty#handler" style="text;html=1;align=center;verticalAlign=middle;whiteSpace=wrap;rounded=0;fillColor=#dae8fc;strokeColor=#6c8ebf;fontFamily=Comic Sans MS;fontSize=13;" vertex="1" parent="1">
          <mxGeometry x="200" y="590" width="110" height="30" as="geometry" />
        </mxCell>
      </root>
    </mxGraphModel>
  </diagram>
</mxfile>
